<?xml version="1.0" standalone="no"?><!DOCTYPE svg PUBLIC "-//W3C//DTD SVG 1.1//EN" "http://www.w3.org/Graphics/SVG/1.1/DTD/svg11.dtd"><svg t="1695722744206" class="icon" viewBox="0 0 1024 1024" version="1.1" xmlns="http://www.w3.org/2000/svg" p-id="4307" id="mx_n_1695722744207" xmlns:xlink="http://www.w3.org/1999/xlink" width="200" height="200"><path d="M653.824 113.664c-2.56 0-5.12-0.512-7.168-2.048L512.512 34.304 378.368 111.616c-6.656 4.096-15.872 1.536-19.456-5.12-2.048-3.072-2.56-7.168-1.536-10.752 1.024-3.584 3.584-6.656 6.656-8.704l148.48-85.504 148.48 85.504c5.632 3.072 8.192 9.728 6.656 16.384-1.536 5.632-7.168 10.24-13.824 10.24z m-141.312 909.312l-148.48-85.504c-6.656-4.096-9.216-12.8-5.12-19.456 4.096-6.656 12.8-9.216 19.456-5.12l134.144 77.312 134.144-77.312c6.656-4.096 15.872-1.536 19.456 5.12 4.096 6.656 1.536 15.872-5.12 19.456l-148.48 85.504zM84.48 442.368c-3.584 0-7.68-1.536-10.24-4.096s-4.096-6.144-4.096-10.24V256.512l148.48-86.016c6.656-4.096 15.872-1.536 19.456 5.12 4.096 6.656 1.536 15.872-5.12 19.456L98.816 272.896v155.136c0 3.584-1.536 7.68-4.096 10.24-3.072 2.56-6.656 4.096-10.24 4.096zM799.232 855.04c-6.656 0-12.288-4.608-13.824-10.752-1.536-6.144 1.024-12.8 6.656-16.384l134.144-77.312v-155.136c0-8.192 6.656-14.336 14.336-14.336 8.192 0 14.336 6.656 14.336 14.336v171.52l-148.48 86.016c-2.048 1.536-4.608 2.048-7.168 2.048z m-573.44 0c-2.56 0-5.12-0.512-7.168-2.048l-148.48-86.016v-171.52c0-8.192 6.656-14.336 14.336-14.336 8.192 0 14.336 6.656 14.336 14.336v155.136l134.144 77.312c5.632 3.072 8.192 9.728 6.656 16.384-1.536 6.144-7.168 10.752-13.824 10.752z m714.752-412.672c-8.192 0-14.336-6.656-14.336-14.336V272.896l-134.144-77.312c-6.656-4.096-9.216-12.8-5.12-19.456 4.096-6.656 12.8-9.216 19.456-5.12l148.48 86.016v171.52c0 7.168-6.144 13.824-14.336 13.824z" fill="#0fc1af" p-id="4308"></path><path d="M685.056 431.104c-3.584-3.584-4.096-9.216-1.024-12.8 3.072-4.096 8.704-5.12 12.8-2.56 27.648 16.384 48.128 36.352 58.88 57.856 1.536 3.072 1.536 7.168-0.512 10.24-2.048 3.072-5.632 4.608-9.216 4.608-3.584-0.512-6.656-2.56-8.192-5.632-9.216-18.432-27.136-35.328-51.2-49.664 0-0.512-0.512-1.024-1.536-2.048zM270.848 485.376c-3.072-3.072-3.584-7.68-2.048-11.264 30.208-60.416 130.048-101.888 243.712-101.888 49.664-0.512 99.328 8.192 145.92 25.6 3.584 1.024 5.632 4.096 6.144 7.68s-1.024 7.168-3.584 9.216c-2.56 2.048-6.656 2.56-9.728 1.536-44.544-16.384-91.136-24.576-138.752-24.064-106.496 0-199.168 37.376-225.792 91.136-1.536 3.072-4.096 4.608-7.168 5.12-3.584 0-6.656-1.024-8.704-3.072z m19.968 94.208c-8.704-8.704-16.384-18.944-22.016-30.208-1.536-3.072-1.536-7.168 0.512-10.24 2.048-3.072 5.632-4.608 9.216-4.608 3.584 0.512 6.656 2.56 8.192 5.632 26.624 53.76 119.296 91.136 225.792 91.136s201.728-38.912 226.816-92.672c2.56-4.608 8.192-6.656 12.8-4.608 4.608 2.048 7.168 7.68 4.608 12.8-28.672 61.44-129.024 103.936-244.224 103.936-93.696 1.024-178.176-27.648-221.696-71.168z" p-id="4309" fill="#0fc1af"></path><path d="M444.416 733.184c-43.52-43.52-72.192-127.488-71.68-221.184 0-115.2 42.496-215.552 103.936-244.224 3.072-1.536 7.168-1.536 9.728 0.512 3.072 2.048 4.608 5.632 4.096 9.216-0.512 3.584-2.56 6.656-5.632 8.192-53.76 24.576-92.672 119.808-92.672 226.304s38.912 201.728 92.672 226.816c4.608 2.56 6.656 8.192 4.608 12.8-2.048 4.608-7.68 7.168-12.8 4.608-12.288-5.632-23.04-13.312-32.256-23.04z m94.72 20.48c-2.048-2.048-3.072-5.632-2.56-8.704s2.56-5.632 5.12-7.168c53.76-26.624 91.136-119.296 91.136-225.792s-37.376-199.168-91.136-225.792c-4.608-2.56-6.656-8.192-4.608-13.312s8.192-6.656 13.312-4.608c60.416 30.208 101.888 130.048 101.888 243.712 0 113.664-41.984 213.504-101.888 243.712-4.096 1.536-8.192 0.512-11.264-2.048z" p-id="4310" fill="#0fc1af"></path><path d="M487.424 296.448c-12.8-12.8-15.36-32.256-6.144-47.616 8.704-15.36 27.136-23.04 44.032-18.432 17.408 4.608 29.184 19.968 29.184 37.888 0 15.872-9.728 30.208-24.064 36.352-15.36 6.656-32.256 3.072-43.008-8.192z m41.472-41.472c-6.656-6.656-16.896-7.68-24.576-2.56s-10.752 15.36-7.168 24.064c3.584 8.704 12.8 13.312 22.016 11.776 9.216-2.048 15.872-9.728 15.872-19.456-0.512-5.12-2.56-10.24-6.144-13.824z m-41.472 527.36c-12.8-12.8-14.848-32.256-6.144-47.616 8.704-15.36 27.136-23.04 44.032-18.432 17.408 4.608 29.184 19.968 29.184 37.888 0 15.872-9.728 30.208-24.064 36.352-15.36 6.656-32.256 3.072-43.008-8.192z m41.472-41.472c-5.632-5.632-14.336-7.68-21.504-4.608-7.168 3.072-12.288 10.24-12.288 18.432 0 10.752 8.704 19.456 19.456 19.456 5.12 0 10.24-2.048 13.824-5.632 3.584-3.584 5.632-8.704 5.632-13.824 0.512-5.12-1.536-10.24-5.12-13.824z m198.656-201.216c-13.312-13.312-15.36-33.792-4.608-49.664 10.24-15.36 30.208-21.504 47.616-14.336 17.408 7.168 27.136 25.6 23.552 44.032-3.584 18.432-19.968 31.744-38.4 31.744-10.752-0.512-20.992-4.608-28.16-11.776z m41.472-41.472c-6.656-6.656-16.896-7.68-24.576-2.56s-10.752 15.36-7.168 24.064c3.584 8.704 12.8 13.312 22.016 11.776 9.216-2.048 15.872-9.728 15.872-19.456 0-5.632-2.048-10.24-6.144-13.824z m-527.36 41.472c-13.312-13.312-15.36-33.792-4.608-49.664 10.24-15.36 30.208-21.504 47.616-14.336 17.408 7.168 27.136 25.6 23.552 44.032-3.584 18.432-19.968 31.744-38.4 31.744-10.752-0.512-20.48-4.608-28.16-11.776z m41.984-41.472c-5.632-5.632-13.824-7.168-21.504-4.096s-12.288 10.24-12.288 17.92c0 10.752 8.704 19.456 19.456 19.456 8.192 0 14.848-4.608 17.92-12.288 3.584-7.168 2.048-15.36-3.584-20.992zM456.192 568.32c-11.264-10.752-17.408-26.112-17.408-41.472v-29.184c0-15.872 6.144-30.72 17.408-41.984 11.264-11.264 26.112-17.408 41.984-17.408h29.184c15.872 0 30.72 6.144 41.984 17.408 11.264 11.264 17.408 26.112 17.408 41.984v29.184c0 15.872-6.144 30.72-17.408 41.984-11.264 11.264-26.112 17.408-41.984 17.408h-29.184c-15.872-0.512-31.232-7.168-41.984-17.92z m98.816-98.816c-7.168-7.168-17.408-11.776-27.648-11.776h-29.184c-21.504 0-39.424 17.408-39.424 39.424v29.184c0 21.504 17.408 39.424 39.424 39.424h29.184c21.504 0 39.424-17.408 39.424-39.424v-29.184c-0.512-10.24-4.608-20.48-11.776-27.648z" p-id="4311" fill="#0fc1af"></path></svg>