<?xml version="1.0" standalone="no"?><!DOCTYPE svg PUBLIC "-//W3C//DTD SVG 1.1//EN" "http://www.w3.org/Graphics/SVG/1.1/DTD/svg11.dtd"><svg t="1694585012246" class="icon" viewBox="0 0 1024 1024" version="1.1" xmlns="http://www.w3.org/2000/svg" p-id="20869" xmlns:xlink="http://www.w3.org/1999/xlink" width="48" height="48"><path d="M378.510407 79.375755l251.721045 0 0 62.929506-251.721045 0 0-62.929506Z" fill="#6bac91" p-id="20870"></path><path d="M944.883011 79.375755 819.021985 79.375755l0 62.929506 125.861026 0 0 188.790532L63.858849 331.095793 63.858849 142.305261l125.860019 0 0-62.929506L63.858849 79.375755c-65.265449 0-62.930513 64.558625-62.930513 62.929506l0 818.093649c0 61.272195 60.59457 62.930513 62.930513 62.930513l881.024162 0c57.399765 0 62.929506-60.593563 62.929506-62.930513l0-818.093649C1007.812517 138.035117 1006.153192 79.375755 944.883011 79.375755M944.883011 960.39891 63.858849 960.39891 63.858849 394.026307l881.024162 0L944.883011 960.39891z" fill="#6bac91" p-id="20871"></path><path d="M724.870382 204.406112c17.57898 0 31.835282-18.742924 31.835282-41.850639L756.705664 58.234462c0-23.046295-14.256302-41.78922-31.835282-41.78922-17.513533 0-31.835282 18.743931-31.835282 41.78922L693.0351 162.555473C693.0351 185.663188 707.357856 204.406112 724.870382 204.406112" fill="#6bac91" p-id="20872"></path><path d="M284.42123 204.406112c17.145018 0 31.096238-18.742924 31.096238-41.850639L315.517468 58.234462c0-23.046295-13.95122-41.78922-31.096238-41.78922-17.207444 0-31.22109 18.743931-31.22109 41.78922L253.20014 162.555473C253.201147 185.663188 267.214793 204.406112 284.42123 204.406112" fill="#6bac91" p-id="20873"></path><path d="M441.499319 897.469404 567.301947 897.469404 567.301947 771.609385 756.092479 771.609385 756.092479 708.678872 567.301947 708.678872 567.301947 645.748359 756.092479 645.748359 756.092479 582.818853 693.161966 582.818853 693.161966 456.957826 630.231453 456.957826 630.231453 519.887333 567.301947 519.887333 567.301947 582.818853 441.499319 582.818853 441.499319 519.887333 378.569813 519.887333 378.569813 456.957826 315.6393 456.957826 315.6393 582.818853 252.708787 582.818853 252.708787 645.748359 441.499319 645.748359 441.499319 708.678872 252.708787 708.678872 252.708787 771.609385 441.499319 771.609385Z" fill="#6bac91" p-id="20874"></path></svg>