<svg version="1.2" xmlns="http://www.w3.org/2000/svg" viewBox="0 0 1920 1080" width="1920" height="1080">
	<title>2</title>
	<style>
		tspan { white-space:pre } 
		.s0 { fill: #e3f0ff } 
		.s1 { opacity: .1;fill: #2882fe } 
		.s2 { opacity: .2;fill: #2882fe } 
	</style>
	<g id="背景">
		<path id="背景" class="s0" d="m0 0h1920v1080h-1920z"/>
		<path id="形状 30" class="s1" d="m1916.6 759.6c0 0-160.5-166-261.3-47.3-100.8 118.7-167.7 234.3-291 183.9-123.4-50.4-275.5-134.3-316.4-3.3-40.9 131-165.1 163-249.4 195.9-84.3 32.8 19.6 466.1 19.6 466.1l1101.7 5.7z"/>
		<path id="形状 30 拷贝" class="s1" d="m-5.5 433.6c0 0 132.2 137 215.4 39.1 83.3-97.8 138.4-193.2 240.1-151.6 101.7 41.7 227.2 110.9 261 2.9 33.7-108.1 136.3-134.4 205.8-161.5 69.5-27.1-16-384.6-16-384.6l-908.6-5.1z"/>
		<path id="椭圆 1" class="s2" d="m1894 162c27.1 0 49 21.9 49 49 0 27.1-21.9 49-49 49-27.1 0-49-21.9-49-49 0-27.1 21.9-49 49-49z"/>
		<path id="椭圆 1 copy" class="s2" d="m119 345c27.1 0 49 21.9 49 49 0 27.1-21.9 49-49 49-27.1 0-49-21.9-49-49 0-27.1 21.9-49 49-49z"/>
		<path id="椭圆 1 拷贝 2" class="s2" d="m11 806c42 0 76 34 76 76 0 42-34 76-76 76-42 0-76-34-76-76 0-42 34-76 76-76z"/>
		<path id="椭圆 1 拷贝" class="s1" d="m72 158c12.2 0 22 9.8 22 22 0 12.2-9.8 22-22 22-12.2 0-22-9.8-22-22 0-12.2 9.8-22 22-22z"/>
	</g>
</svg>